# xmcd
#
# Track frame offsets:
#	150
#	21785
#	42920
#	60012
#	85487
#	107482
#	126272
#	150485
#	173970
#	193915
#
# Disc length: 2845 seconds
#
# Revision: 0
# Processed by: cddbd v1.5.2PL0 Copyright (c) Steve Scherf et al.
# Submitted via: EasyCDDAExtractor 16.0.9.1
#
DISCID=790b1b0a
DTITLE=Thanh Hà, Tô Chấn Phong, Diễm Liên - KH40: Vầng Tóc Rối
DYEAR=1997
DGENRE=Pop
TTITLE0=Thanh Hà - Giọt Buồn
TTITLE1=Diễm Liên - Kỷ Niệm Buồn
TTITLE2=Tô Chấn Phong - Mưa Trong Mắt Em
TTITLE3=Thanh Hà - Hỡi Tình Yêu
TTITLE4=Diễm Liên - Mùa Thu Xa Em
TTITLE5=Tô Chấn Phong - Màu Tóc Rối
TTITLE6=Thanh Hà - Mắt Biếc
TTITLE7=Diễm Liên - Mộng Ước Phai Tàn
TTITLE8=Tô Chấn Phong - Em Tôi
TTITLE9=Diễm Liên - Ân Tình Mong Manh
EXTD=
EXTT0=
EXTT1=
EXTT2=
EXTT3=
EXTT4=
EXTT5=
EXTT6=
EXTT7=
EXTT8=
EXTT9=
PLAYORDER=
